<?xml version="1.0" encoding="utf-8"?>
<!-- Generator: Adobe Illustrator 21.0.0, SVG Export Plug-In . SVG Version: 6.00 Build 0)  -->
<svg version="1.1" xmlns="http://www.w3.org/2000/svg" xmlns:xlink="http://www.w3.org/1999/xlink" x="0px" y="0px"
	 viewBox="0 0 256 256" style="enable-background:new 0 0 256 256;" xml:space="preserve">
<style type="text/css">
	.st0{fill:#FFFFFF;}
	.st1{display:none;fill:#D62D2D;}
	.st2{fill:none;}
	.st3{fill:#2FBB1C;}
	.st4{fill:#6E6E6E;}
	.st5{font-family:'Futura';}
	.st6{font-size:33.06px;}
</style>
<g id="bleed">
	<g>
		<rect x="-5" y="-5.5" class="st0" width="266" height="266"/>
	</g>
	<rect x="236" y="236.5" class="st1" width="20" height="20"/>
</g>
<g id="logo">
	<rect x="98" y="75.5" class="st2" width="74" height="52"/>
	<g id="logo_1_">
		<rect x="32.1" y="30.4" class="st0" width="97.6" height="193.6"/>
		<rect x="128.4" y="30.4" class="st3" width="97.6" height="193.6"/>
		<text transform="matrix(1 0 0 1 37.0859 202.7861)"><tspan x="0" y="0" class="st4 st5 st6"> WP R</tspan><tspan x="87.4" y="0" class="st0 st5 st6">edirect</tspan></text>
		<g id="lines_1_">
			<rect x="147.3" y="131" class="st0" width="22" height="5"/>
			<rect x="147.3" y="116.8" class="st0" width="38.6" height="5"/>
			<rect x="147.3" y="102.7" class="st0" width="52" height="5"/>
			<rect x="136.7" y="82.7" class="st0" width="73.2" height="7.1"/>
		</g>
		<g id="lines">
			<rect x="57.6" y="131" class="st3" width="52" height="5"/>
			<rect x="57.6" y="116.8" class="st3" width="52" height="5"/>
			<rect x="57.6" y="102.7" class="st3" width="52" height="5"/>
			<rect x="46.9" y="82.7" class="st3" width="73.2" height="7.1"/>
		</g>
	</g>
</g>
</svg>
